<svg height="511pt" viewBox="0 -25 511.99998 511" width="511pt" xmlns="http://www.w3.org/2000/svg"><path d="m184.195312 154.472656c-2.925781-2.925781-7.675781-2.925781-10.605468 0-2.929688 2.929688-2.929688 7.679688 0 10.605469l35.367187 35.367187c4.871094 4.871094 4.871094 12.804688 0 17.675782l-38.585937 38.589844-43.492188-43.496094c-1.410156-1.410156-3.300781-2.1875-5.300781-2.1875s-3.890625.777344-5.300781 2.1875c-2.929688 2.929687-2.929688 7.691406 0 10.609375l43.492187 43.488281-43.199219 43.203125c-1.078124 1.082031-2.511718 1.675781-4.039062 1.675781-1.527344-.003906-2.960938-.597656-4.039062-1.675781l-51.320313-51.320313c-1.078125-1.078124-1.671875-2.511718-1.671875-4.039062 0-1.523438.59375-2.957031 1.671875-4.035156l154.144531-154.140625c2.921875-2.925781 7.679688-2.925781 10.605469 0l48.789063 48.789062c2.929687 2.929688 7.679687 2.929688 10.605468 0 2.929688-2.929687 2.929688-7.675781 0-10.605469l-48.789062-48.792968c-8.773438-8.769532-23.046875-8.769532-31.820313 0l-154.144531 154.144531c-3.90625 3.910156-6.058594 9.105469-6.0625 14.636719-.003906 5.535156 2.152344 10.738281 6.066406 14.652344l51.320313 51.316406c3.90625 3.910156 9.105469 6.066406 14.636719 6.070312h.007812c5.53125 0 10.734375-2.15625 14.644531-6.066406l92.386719-92.394531c10.722656-10.722657 10.722656-28.167969 0-38.894531zm0 0"/><path d="m511.976562 240.023438c-.617187-33.050782-14-64.15625-37.683593-87.582032-.8125-.804687-1.636719-1.59375-2.46875-2.375 6.6875-13.734375 10.445312-29.152344 10.445312-45.429687 0-57.421875-46.714843-104.136719-104.136719-104.136719-29.269531 0-56.621093 12.425781-75.957031 32.980469-5.644531-2.117188-11.601562-3.230469-17.664062-3.246094-13.136719-.027344-38.261719.035156-61.226563.050781-15.339844.015625-29.761718 5.996094-40.609375 16.84375l-164.746093 164.746094c-11.5625 11.5625-17.929688 26.933594-17.929688 43.28125 0 16.351562 6.367188 31.722656 17.929688 43.285156l51.320312 51.320313c11.5625 11.5625 26.933594 17.929687 43.28125 17.929687 16.351562 0 31.722656-6.367187 43.28125-17.929687l85.449219-85.445313c3.347656 8.5625 8.445312 16.425782 15.140625 23.121094l15.410156 15.410156-34.457031 34.453125c-2.832031 2.835938-4.394531 6.601563-4.394531 10.609375v9.390625h-9.394532c-4.003906 0-7.769531 1.5625-10.605468 4.394531l-5.960938 5.960938c-2.832031 2.832031-4.394531 6.601562-4.394531 10.609375v9.390625h-9.394531c-4.007813 0-7.773438 1.5625-10.605469 4.394531l-7.550781 7.554688c-5.195313 5.191406-8.058594 12.097656-8.058594 19.445312v19.140625c0 12.398438 10.097656 22.5 22.5 22.5h19.144531c7.347656 0 14.25-2.859375 19.445313-8.054687l96.757812-96.757813 15.339844 15.339844c12.75 12.75 29.699218 19.773438 47.730468 19.773438 18.027344 0 34.980469-7.023438 47.730469-19.773438l36.679688-36.683594c25.867187-24.460937 40.320312-58.90625 39.652343-94.511718zm-133.839843-224.523438c49.148437 0 89.136719 39.984375 89.136719 89.136719 0 12.613281-2.640626 24.617187-7.386719 35.503906-36.78125-27.007813-83.550781-30.988281-122.460938-15.171875l.007813-6.753906c.023437-14.15625.039062-26.636719.023437-35.039063-.03125-13.699219-5.664062-26.867187-15.863281-37.085937-1.847656-1.84375-3.792969-3.53125-5.816406-5.070313 16.351562-15.96875 38.613281-25.519531 62.359375-25.519531zm-141.070313 231.792969-91.859375 91.863281c-8.726562 8.726562-20.332031 13.535156-32.675781 13.535156s-23.945312-4.808594-32.675781-13.535156l-51.320313-51.320312c-18.019531-18.019532-18.019531-47.335938 0-65.351563l164.746094-164.75c8.019531-8.019531 18.679688-12.4375 30.019531-12.449219 22.808594-.015625 48.597657-.078125 61.179688-.050781 2.550781.007813 5.082031.300781 7.5625.851563-3.144531 4.605468-5.945313 9.488281-8.339844 14.625-12.039063.421874-21.703125 10.339843-21.703125 22.480468 0 12.40625 10.09375 22.5 22.5 22.5s22.5-10.09375 22.5-22.5c0-7.285156-3.480469-13.765625-8.867188-17.882812 2.246094-4.550782 4.855469-8.867188 7.792969-12.910156 1.769531 1.277343 3.464844 2.703124 5.058594 4.296874 7.375 7.386719 11.449219 16.804688 11.472656 26.515626.019531 8.390624 0 20.847656-.023437 34.980468l-.019532 14.078125c-9.71875 5.566407-18.761718 12.460938-26.894531 20.609375l-39.105469 39.085938c-14.34375 14.339844-21.683593 34.304687-19.347656 55.328125zm54.933594-164.101563c0 4.136719-3.363281 7.5-7.5 7.5s-7.5-3.363281-7.5-7.5c0-3.132812 1.929688-5.820312 4.664062-6.941406.8125.953125 1.867188 1.71875 3.125 2.179688 1.828126.671874 3.738282.578124 5.40625-.101563 1.121094 1.308594 1.804688 3.007813 1.804688 4.863281zm-74.519531 358.839844c-2.359375 2.359375-5.5 3.660156-8.839844 3.660156h-15.535156l94.863281-94.867187c2.917969-2.933594 2.929688-7.660157 0-10.609375-2.929688-2.925782-7.664062-2.941406-10.609375 0l-95.359375 95.359375v-16.523438c0-3.339843 1.300781-6.480469 3.660156-8.839843l7.554688-7.554688h16.890625c4.144531 0 7.5-3.355469 7.5-7.5l.003906-16.890625 5.960937-5.964844h16.894532c4.140625 0 7.5-3.355469 7.5-7.5l-.003906-16.890625 34.460937-34.457031c19.425781 19.429687 12.117187 12.117187 31.816406 31.820313zm244.46875-118.324219c-.050781.046875-.101563.097657-.152344.148438l-36.757813 36.757812c-9.917968 9.914063-23.101562 15.378907-37.125 15.378907-14.023437 0-27.207031-5.464844-37.121093-15.378907l-83.78125-83.78125c-9.917969-9.917969-15.378907-23.105469-15.378907-37.128906.003907-14.027344 5.46875-27.210937 15.386719-37.125l39.113281-39.09375c39.21875-39.300781 101.558594-44.125 146.453126-9.894531-8.078126 12.25-19.09375 22.398437-32.039063 29.429687-10.226563-6.136719-22.113281-9.722656-34.742187-9.828125h-.554688c-2.738281 0-5.492188.160156-8.191406.476563-10.214844 1.199219-18.65625 7.976562-22.03125 17.691406-3.375 9.71875-.953125 20.269531 6.320312 27.542969 6.226563 6.226562 14.832032 9.789062 23.671875 9.789062h.152344.253906c7.097657.078125 13.4375 6.359375 13.570313 13.433594.003906.265625.003906.523438-.003906.765625-.238282 8.441406 3.167968 16.828125 9.351562 23.011719l.457031.453125c5.105469 5.105469 11.839844 7.824219 18.777344 7.824219 2.9375 0 5.910156-.488282 8.8125-1.488282 9.621094-3.316406 16.363281-11.617187 17.589844-21.667968.398437-3.261719.570312-6.605469.507812-9.929688-.351562-18.800781-8.425781-35.878906-21.128906-48.210938 12.097656-7.597656 22.527344-17.609374 30.613281-29.355468 19.875 19.816406 32.453125 46.960937 33.007813 76.773437.585937 31.429688-12.179688 61.832031-35.03125 83.40625zm-76.414063-110.015625h-.316406c-.023438 0-.132812 0-.152344 0-.027344 0-.054687 0-.082031 0-4.707031 0-9.300781-1.859375-12.707031-5.101562 1.953125.109375 3.90625.183594 5.859375.183594 14.585937 0 28.476562-3.019532 41.089843-8.460938 12.070313 9.78125 19.957032 24.578125 20.261719 41.0625.050781 2.628906-.082031 5.261719-.394531 7.828125-.535156 4.375-3.375 7.855469-7.589844 9.308594-4.347656 1.5-8.871094.464843-12.097656-2.761719l-.453125-.457031c-3.277344-3.277344-5.089844-7.640625-4.964844-11.988281.011719-.476563.015625-.960938.007813-1.453126-.28125-15.09375-13.289063-27.988281-28.460938-28.160156zm-14.910156-20.238281c1.851562-2.714844 4.742188-4.480469 8.179688-4.886719 2.121093-.25 4.292968-.375 6.417968-.375l.492188.003906c5.445312.042969 10.714844.914063 15.6875 2.492188-7.421875 2.007812-15.21875 3.085938-23.265625 3.085938-2.507813 0-5.015625-.113282-7.511719-.320313zm0 0"/></svg>