<svg height="512pt" viewBox="-93 0 512 512.001" width="512pt" xmlns="http://www.w3.org/2000/svg"><path d="m208.46875 406.34375h-19.476562v-25.9375c0-4.175781-3.386719-7.5625-7.566407-7.5625-4.175781 0-7.5625 3.386719-7.5625 7.5625v33.5c0 4.175781 3.386719 7.5625 7.5625 7.5625h27.042969c5.835938 0 10.585938 4.75 10.585938 10.585938 0 5.839843-4.75 10.589843-10.585938 10.589843h-27.042969c-4.175781 0-7.5625 3.386719-7.5625 7.5625v36.078125c0 5.835938-4.75 10.585938-10.585937 10.585938-5.839844 0-10.589844-4.75-10.589844-10.585938v-36.078125c0-4.175781-3.386719-7.5625-7.5625-7.5625h-27.039062c-5.839844 0-10.589844-4.75-10.589844-10.589843 0-5.835938 4.75-10.585938 10.589844-10.585938h27.039062c4.175781 0 7.5625-3.386719 7.5625-7.5625v-95.980469c0-3.835937-2.875-7.066406-6.6875-7.511719-74.609375-8.703124-130.871094-71.957031-130.871094-147.136718 0-81.691406 66.457032-148.148438 148.148438-148.148438 39.503906 0 76.691406 15.425782 104.707031 43.441406 2.953125 2.953126 7.742187 2.953126 10.695313 0 2.953124-2.953124 2.953124-7.742187 0-10.695312-30.875-30.871094-71.855469-47.875-115.402344-47.875-90.03125 0-163.277344 73.246094-163.277344 163.277344 0 80.59375 58.671875 148.753906 137.558594 161.242187v81.824219h-19.476563c-14.175781 0-25.714843 11.535156-25.714843 25.714844 0 14.175781 11.539062 25.714844 25.714843 25.714844h19.476563v28.511718c0 14.179688 11.539062 25.714844 25.71875 25.714844 14.175781 0 25.714844-11.535156 25.714844-25.714844v-28.511718h19.476562c14.179688 0 25.714844-11.539063 25.714844-25.714844 0-14.179688-11.535156-25.714844-25.714844-25.714844zm0 0"/><path d="m163.277344 275.121094c-61.675782 0-111.847656-50.171875-111.847656-111.84375 0-4.179688-3.386719-7.5625-7.5625-7.5625-4.175782 0-7.5625 3.382812-7.5625 7.5625 0 70.011718 56.957031 126.972656 126.972656 126.972656 70.011718 0 126.972656-56.960938 126.972656-126.972656 0-70.015625-56.960938-126.972656-126.972656-126.972656-57.828125 0-108.367188 39.085937-122.910156 95.054687-1.050782 4.042969 1.375 8.171875 5.417968 9.222656 4.046875 1.050781 8.171875-1.375 9.21875-5.417969 12.8125-49.300781 57.335938-83.734374 108.273438-83.734374 61.671875 0 111.84375 50.175781 111.84375 111.847656s-50.171875 111.84375-111.84375 111.84375zm0 0"/><path d="m298.625 72.039062c-2.339844-3.460937-7.039062-4.367187-10.5-2.027343-3.460938 2.339843-4.371094 7.039062-2.03125 10.5 16.574219 24.507812 25.332031 53.128906 25.332031 82.765625 0 41.402344-17.582031 81.234375-48.234375 109.28125-7.070312 6.46875-14.796875 12.277344-22.957031 17.257812-18.324219 11.1875-38.40625 18.117188-59.683594 20.597656-3.8125.445313-6.6875 3.675782-6.6875 7.511719v32.226563c0 4.179687 3.386719 7.566406 7.5625 7.566406 4.179688 0 7.566407-3.386719 7.566407-7.566406v-25.632813c20.988281-3.320312 40.847656-10.636719 59.121093-21.789062 8.992188-5.492188 17.5-11.886719 25.289063-19.015625 33.777344-30.902344 53.148437-74.800782 53.148437-120.4375 0-32.667969-9.65625-64.21875-27.925781-91.238282zm0 0"/></svg>