<svg height="512pt" viewBox="-98 0 512 512" width="512pt" xmlns="http://www.w3.org/2000/svg"><path d="m222.140625 369h-2.160156v-18.558594c0-6.308594-4.972657-11.441406-11.089844-11.441406h-13.890625v-19.726562c35.5-12.203126 63.234375-41.257813 73.59375-77.566407 3.570312 1.402344 7.320312 2.121094 11.148438 2.121094 21.835937 0 33.261718-24.691406 33.261718-49.089844 0-22.347656-9.167968-38.070312-24.023437-42.582031 4.128906-18.886719 11.488281-66.003906-7.902344-100.734375-2.019531-3.617187-6.585937-4.910156-10.207031-2.890625-3.613282 2.019531-4.910156 6.585938-2.890625 10.203125 18.820312 33.707031 7.953125 83.957031 5.15625 95.234375-7.410157 6.058594-11.230469 12.824219-13.167969 17.671875-83.425781-2.449219-116.628906-60.109375-129.066406-94.78125-2.097656-5.84375-7.46875-9.683594-13.6875-9.785156-6.242188-.113281-11.71875 3.5625-14.003906 9.339843-14.433594 36.4375-40.515626 69.675782-52.648438 84.007813-3.148438-3.4375-6.679688-5.859375-9.160156-7.3125-2.488282-7.984375-9.421875-34.863281-5.289063-75.835937 3.136719-31.125 37.433594-43.648438 68.65625-45.414063 3.421875-.195313 6.792969-1.285156 9.753907-3.15625 13.972656-8.828125 34.949218-13.695313 59.0625-13.703125h.050781c27.964843 0 56.035156 8.402344 75.09375 22.480469 3.332031 2.457031 8.027343 1.753906 10.488281-1.578125 2.460938-3.332032 1.753906-8.027344-1.578125-10.488282-21.867187-16.152343-52.480469-25.414062-84.003906-25.414062h-.058594c-19.039063.0078125-46.125 2.792969-67.066406 16.023438-.8125.511718-1.707031.808593-2.589844.859374-39.234375 2.21875-78.761719 19.46875-82.734375 58.886719-3.765625 37.34375 1.019531 63.714844 4.371094 76.53125-14.582032 4.695313-23.558594 20.324219-23.558594 42.4375 0 24.398438 11.425781 49.089844 33.261719 49.089844 3.828125 0 7.578125-.71875 11.148437-2.121094 10.359375 36.308594 38.089844 65.363281 73.589844 77.566407v19.726562h-13.890625c-6.113281 0-11.089844 5.132812-11.089844 11.441406v18.558594h-2.160156c-19.296875 0-37.804687 5.867188-53.515625 16.964844-3.382812 2.390625-4.1875 7.070312-1.800781 10.453125 2.390625 3.382812 7.070312 4.1875 10.453125 1.800781 13.167968-9.304688 28.679687-14.21875 44.863281-14.21875h42.140625v80.699219c0 7.332031 5.96875 13.300781 13.304688 13.300781h18.394531c7.332031 0 13.300781-5.96875 13.300781-13.300781v-80.699219h42.140625c42.933594 0 77.859375 34.929688 77.859375 77.859375v35.140625h-45.699219c-4.144531 0-7.5 3.359375-7.5 7.5s3.355469 7.5 7.5 7.5h53.199219c4.144531 0 7.5-3.359375 7.5-7.5v-42.640625c0-51.203125-41.65625-92.859375-92.859375-92.859375zm75.859375-174.261719c0 16.757813-6.828125 34.089844-18.257812 34.089844-2.710938 0-5.398438-.742187-7.929688-2.175781 1.882812-13.015625.925781-20.085938 1.1875-46.773438.335938-1.519531 2.105469-7.925781 9.128906-13.882812 11.648438 1.667968 15.871094 15.625 15.871094 28.742187zm-262.738281 34.089844c-11.429688 0-18.261719-17.332031-18.261719-34.089844 0-13.375 4.394531-27.628906 16.578125-28.828125 2.628906 1.519532 6.792969 4.5625 8.421875 8.390625.277344 32.210938-.722656 39.117188 1.1875 52.351563-2.527344 1.433594-5.21875 2.175781-7.925781 2.175781zm23.488281-.046875c-.015625-.097656-.035156-.199219-.058594-.296875-2.6875-14.453125-1.316406-22.523437-1.691406-52.578125 8.632812-9.621094 42.003906-48.492188 59.960938-93.480469 22.039062 60.871094 70.34375 101.5625 141.039062 104.160157-.316406 19.738281.894531 28.003906-1.691406 41.898437-.019532.101563-.039063.199219-.054688.296875-8.792968 46.46875-49.699218 81.71875-98.683594 81.71875h-.140624c-48.984376 0-89.890626-35.253906-98.679688-81.71875zm98.679688 96.71875h.140624c7.671876 0 15.171876-.753906 22.429688-2.1875v16.324219c-11.238281 1.996093-18.226562 8.386719-22.5 14.757812-4.273438-6.371093-11.257812-12.761719-22.5-14.757812v-16.324219c7.257812 1.433594 14.757812 2.1875 22.429688 2.1875zm-47.410157 28.5h17.480469c12.828125 0 18.371094 8.316406 20.757812 15h-38.238281zm54.980469 109h-15v-79h15zm1.761719-94c2.390625-6.644531 7.9375-15 20.738281-15h17.480469v15zm0 0"/><path d="m221.183594 497h-206.183594v-35.140625c0-15.277344 4.421875-30.0625 12.785156-42.761719 2.277344-3.460937 1.320313-8.109375-2.140625-10.390625-3.457031-2.277343-8.109375-1.320312-10.386719 2.140625-9.980468 15.15625-15.257812 32.792969-15.257812 51.011719v42.640625c0 4.140625 3.359375 7.5 7.5 7.5h213.683594c4.140625 0 7.5-3.359375 7.5-7.5s-3.359375-7.5-7.5-7.5zm0 0"/><path d="m174.511719 269.128906c3.992187-1.113281 6.324219-5.25 5.207031-9.238281-1.113281-3.992187-5.25-6.324219-9.238281-5.207031-7.765625 2.167968-18.195313 2.167968-25.957031 0-3.992188-1.117188-8.128907 1.214844-9.242188 5.207031-1.117188 3.988281 1.214844 8.125 5.207031 9.238281 5.246094 1.464844 11.128907 2.199219 17.011719 2.199219s11.765625-.734375 17.011719-2.199219zm0 0"/></svg>