<svg id="Capa_1" enable-background="new 0 0 512 512" height="512" viewBox="0 0 512 512" width="512" xmlns="http://www.w3.org/2000/svg"><path d="m497 61h-482c-8.284 0-15 6.716-15 15v360c0 8.284 6.716 15 15 15s15-6.716 15-15v-45h60v45c0 8.284 6.716 15 15 15s15-6.716 15-15v-345h61v121.509c4.848-.988 9.864-1.509 15-1.509s10.152.521 15 1.509v-121.509h90v121.509c4.848-.988 9.864-1.509 15-1.509s10.152.521 15 1.509v-121.509h61v345c0 8.284 6.716 15 15 15s15-6.716 15-15v-105h60v105c0 8.284 6.716 15 15 15s15-6.716 15-15v-360c0-8.284-6.716-15-15-15zm-407 180h-60v-30h60zm-60 30h60v30h-60zm60-90h-60v-30h60zm-60 180v-30h60v30zm60-240h-60v-30h60zm392-30v90h-60v-90zm-60 210v-90h60v90z"/><path d="m196 241c-24.813 0-45 20.187-45 45s20.187 45 45 45 45-20.187 45-45-20.187-45-45-45zm0 60c-8.271 0-15-6.729-15-15s6.729-15 15-15 15 6.729 15 15-6.729 15-15 15z"/><path d="m316 241c-24.813 0-45 20.187-45 45s20.187 45 45 45 45-20.187 45-45-20.187-45-45-45zm0 60c-8.271 0-15-6.729-15-15s6.729-15 15-15 15 6.729 15 15-6.729 15-15 15z"/></svg>