<svg height="512pt" viewBox="-98 0 512 512.00053" width="512pt" xmlns="http://www.w3.org/2000/svg"><path d="m180 428.007812c0-12.40625-10.089844-22.5-22.5-22.5-12.40625 0-22.5 10.09375-22.5 22.5s10.09375 22.496094 22.5 22.496094c12.410156 0 22.5-10.089844 22.5-22.496094zm-30 0c0-4.136718 3.367188-7.5 7.5-7.5 4.136719 0 7.5 3.363282 7.5 7.5 0 4.132813-3.363281 7.496094-7.5 7.496094-4.132812 0-7.5-3.363281-7.5-7.496094zm0 0"/><path d="m144.523438 255.117188c-3.992188-1.113282-8.128907 1.21875-9.242188 5.207031s1.21875 8.125 5.207031 9.242187c5.246094 1.464844 11.128907 2.195313 17.011719 2.195313s11.765625-.730469 17.011719-2.195313c3.992187-1.117187 6.324219-5.253906 5.207031-9.242187-1.113281-3.988281-5.25-6.320313-9.238281-5.207031-7.765625 2.167968-18.195313 2.167968-25.957031 0zm0 0"/><path d="m222.140625 369.011719h-2.160156v-14.148438c37.621093-11.316406 77.609375-37.410156 77.609375-76.664062 0-12.171875-3.992188-23.875-11.703125-34.621094 17.828125-4.167969 27.113281-26.402344 27.113281-48.394531 0-17.445313-5.636719-31.121094-15.628906-38.34375-.230469-6.085938-.511719-20.605469.214844-49.542969 1.730468-69.019531-96.210938-135-174.796876-95.332031-10.792968-1.5-49.984374-4.039063-79.207031 31.503906-27.65625 33.632812-23.878906 91.707031-21.738281 110.832031-12.398438 6.125-19.84375 21.109375-19.84375 40.882813 0 21.992187 9.289062 44.226562 27.117188 48.394531-7.714844 10.746094-11.707032 22.449219-11.707032 34.621094 0 39.261719 40.007813 65.351562 77.609375 76.664062v14.148438h-2.160156c-19.296875 0-37.804687 5.867187-53.515625 16.964843-3.382812 2.390626-4.1875 7.066407-1.800781 10.449219 2.390625 3.386719 7.070312 4.1875 10.453125 1.800781 13.167968-9.300781 28.679687-14.214843 44.863281-14.214843h129.28125c42.933594 0 77.859375 34.921875 77.859375 77.851562v35.136719h-45.699219c-4.140625 0-7.5 3.359375-7.5 7.5s3.359375 7.5 7.5 7.5h53.199219c4.144531 0 7.5-3.359375 7.5-7.5v-42.636719c0-51.199219-41.65625-92.851562-92.859375-92.851562zm-7.359375-28.246094c-1.707031-1.109375-3.726562-1.753906-5.890625-1.753906h-13.890625v-19.304688c34.515625-11.863281 61.683594-39.652343 72.6875-74.546875 7.96875 8.308594 14.902344 19.449219 14.902344 33.039063 0 26.121093-26.453125 50.375-67.808594 62.566406zm-57.28125 13.644531c-4.273438-6.371094-11.257812-12.761718-22.5-14.757812v-15.90625c7.257812 1.4375 14.757812 2.1875 22.429688 2.1875h.140624c7.671876 0 15.171876-.75 22.429688-2.1875v15.90625c-11.238281 1.996094-18.226562 8.386718-22.5 14.757812zm122.242188-125.136718c-2.714844 0-5.40625-.746094-7.929688-2.175782 1.707031-11.824218 1.039062-19.511718 1.1875-27.585937 6.421875-3.875 15.1875-11.253907 20.707031-24.445313 2.761719 5.019532 4.292969 11.96875 4.292969 20.117188 0 16.757812-6.828125 34.089844-18.257812 34.089844zm-224.574219-176.28125c27.570312-33.53125 65.730469-26.210938 67.316406-25.886719 1.726563.363281 3.527344.105469 5.082031-.722657 68.679688-36.695312 156.488282 22.25 155.027344 80.539063-.894531 35.628906-.296875 49.832031-.058594 53.734375-3.019531 14.054688-10.082031 22.957031-22.773437 28.589844-24.3125 10.792968-51.101563-1.5625-79.625-36.710938-2.609375-3.214844-7.335938-3.707031-10.550781-1.097656-3.214844 2.609375-3.707032 7.332031-1.097657 10.550781 22.847657 28.152344 54.382813 54.035157 89.515625 43.839844-.09375 2.71875.5 11.3125-1.691406 23.09375-.023438.101563-.042969.199219-.058594.300781-8.789062 46.464844-49.695312 81.714844-98.683594 81.714844h-.136718c-48.984375 0-89.890625-35.246094-98.683594-81.710938-.015625-.101562-.035156-.203124-.058594-.304687-2.523437-13.578125-1.414062-22.121094-1.6875-36.484375 10.757813-8.15625 22.171875-30.5625 28.679688-44.820312 14.542968-31.882813 27.046875-53.507813 34.503906-65.410157 5.8125 12.476563 15.882812 32.570313 29.152344 53.152344 2.246094 3.480469 6.886718 4.484375 10.367187 2.238281 3.480469-2.242187 4.484375-6.882812 2.238281-10.363281-20.417968-31.675781-33.375-63.089844-33.503906-63.402344-2.214844-5.40625-9.484375-6.300781-12.957031-1.636719-.773437 1.039063-19.210937 26.0625-43.449219 79.195313-12.402344 27.183594-20.328125 35.902344-23.390625 38.511719-3.253906-2.714844-8.296875-12.539063-11.246093-22.214844-.886719-6.175781-9.511719-71.519531 17.769531-104.695312zm-38.167969 142.191406c0-12.046875 3.164062-21.101563 8.703125-25.636719.894531 2.28125 1.980469 4.84375 3.234375 7.417969 4.03125 8.285156 8.351562 13.75 13.0625 16.488281.195312 13.570313-.601562 21.261719 1.1875 33.640625-2.527344 1.433594-5.21875 2.179688-7.925781 2.179688-11.429688 0-18.261719-17.332032-18.261719-34.089844zm15.410156 83.015625c0-13.589844 6.9375-24.726563 14.902344-33.039063 11.003906 34.894532 38.175781 62.683594 72.6875 74.546875v19.308594h-13.890625c-2.160156 0-4.179687.640625-5.886719 1.75-41.347656-12.195313-67.8125-36.464844-67.8125-62.566406zm77.609375 90.8125v-15h17.480469c12.828125 0 18.375 8.316406 20.757812 15zm56.742188 0c2.390625-6.640625 7.941406-15 20.738281-15h17.480469v15zm0 0"/><path d="m221.183594 497h-206.183594v-35.136719c0-15.273437 4.421875-30.0625 12.785156-42.757812 2.277344-3.460938 1.320313-8.109375-2.140625-10.390625-3.460937-2.277344-8.109375-1.320313-10.386719 2.140625-9.980468 15.152343-15.257812 32.792969-15.257812 51.007812v42.636719c0 4.144531 3.359375 7.5 7.5 7.5h213.683594c4.140625 0 7.5-3.359375 7.5-7.5s-3.355469-7.5-7.5-7.5zm0 0"/></svg>